<?xml version="1.0" encoding="UTF-8" standalone="no"?>
<svg
   xmlns:dc="http://purl.org/dc/elements/1.1/"
   xmlns:cc="http://creativecommons.org/ns#"
   xmlns:rdf="http://www.w3.org/1999/02/22-rdf-syntax-ns#"
   xmlns:svg="http://www.w3.org/2000/svg"
   xmlns="http://www.w3.org/2000/svg"
   xmlns:sodipodi="http://sodipodi.sourceforge.net/DTD/sodipodi-0.dtd"
   xmlns:inkscape="http://www.inkscape.org/namespaces/inkscape"
   version="1.1"
   x="0px"
   y="0px"
   viewBox="0 0 32 32"
   xml:space="preserve"
   width="32"
   height="32"
   id="svg26"
   sodipodi:docname="email.svg"
   inkscape:version="0.92.3 (2405546, 2018-03-11)"><metadata
     id="metadata32"><rdf:RDF><cc:Work
         rdf:about=""><dc:format>image/svg+xml</dc:format><dc:type
           rdf:resource="http://purl.org/dc/dcmitype/StillImage" /><dc:title></dc:title></cc:Work></rdf:RDF></metadata><defs
     id="defs30" /><sodipodi:namedview
     pagecolor="#ffffff"
     bordercolor="#666666"
     borderopacity="1"
     objecttolerance="10"
     gridtolerance="10"
     guidetolerance="10"
     inkscape:pageopacity="0"
     inkscape:pageshadow="2"
     inkscape:window-width="2560"
     inkscape:window-height="1377"
     id="namedview28"
     showgrid="false"
     inkscape:zoom="22.627417"
     inkscape:cx="12.652954"
     inkscape:cy="17.953203"
     inkscape:window-x="1912"
     inkscape:window-y="-8"
     inkscape:window-maximized="1"
     inkscape:current-layer="svg26" /><path
     style="fill:#444444;fill-opacity:1;stroke-width:0.04443817"
     d="M -0.21875 -0.109375 L -0.21875 15.955078 L -0.21875 32.019531 L 15.912109 32.019531 L 32.042969 32.019531 L 32.042969 15.955078 L 32.042969 -0.109375 L 15.912109 -0.109375 L -0.21875 -0.109375 z M 7.2578125 9.0058594 L 24.742188 9.0058594 C 25.091857 9.0058594 25.324219 9.2401749 25.324219 9.5898438 L 25.324219 22.410156 C 25.324219 22.759825 25.091856 22.994141 24.742188 22.994141 L 7.2578125 22.994141 C 6.9081436 22.994141 6.6757812 22.759825 6.6757812 22.410156 L 6.6757812 9.5898438 C 6.6757813 9.2401749 6.9081436 9.0058594 7.2578125 9.0058594 z M 8.9042969 10.777344 C 8.7586015 10.799198 8.6284328 10.871725 8.5410156 10.988281 C 8.3661811 11.279672 8.4231374 11.629854 8.65625 11.804688 L 15.650391 16.466797 C 15.766947 16.525073 15.883444 16.582031 16 16.582031 C 16.116556 16.582031 16.233053 16.525075 16.349609 16.466797 L 23.34375 11.804688 C 23.576863 11.629854 23.633818 11.279987 23.458984 11.046875 C 23.284149 10.755484 22.935921 10.69626 22.644531 10.871094 L 16 15.300781 L 9.3554688 10.871094 C 9.2097734 10.783677 9.0499922 10.75549 8.9042969 10.777344 z "
     id="path4629" /><g
     inkscape:groupmode="layer"
     id="layer1"
     inkscape:label="Layer 1"
     style="display:inline" /></svg>